<svg xmlns="http://www.w3.org/2000/svg" width="40" height="40" viewBox="0 0 40 40" fill="none">
<g clip-path="url(#clip0_908_4077)">
<path d="M22.2988 19.7931L25.7108 23.6933L30.2995 26.6253L31.0976 19.8178L30.2995 13.1638L25.623 15.7394L22.2988 19.7931Z" fill="#00832D"/>
<path d="M2.49951 25.9919V31.7929C2.49951 33.1175 3.57457 34.1928 4.89943 34.1928H10.7004L11.9017 29.8098L10.7004 25.9919L6.72056 24.7906L2.49951 25.9919Z" fill="#0066DA"/>
<path d="M10.7004 5.3938L2.49951 13.5947L6.72081 14.7932L10.7004 13.5947L11.8798 9.82884L10.7004 5.3938Z" fill="#E94235"/>
<path d="M2.49951 25.9945H10.7004V13.5946H2.49951V25.9945Z" fill="#2684FC"/>
<path d="M35.5376 8.8663L30.2988 13.1643V26.6255L35.5594 30.9402C36.3468 31.557 37.4988 30.9947 37.4988 29.9938V9.79336C37.4988 8.78126 36.3194 8.22177 35.5376 8.8663Z" fill="#00AC47"/>
<path d="M22.2992 19.7933V25.9919H10.7002V34.1928H27.8999C29.2248 34.1928 30.2998 33.1175 30.2998 31.7929V26.6255L22.2992 19.7933Z" fill="#00AC47"/>
<path d="M27.8999 5.39392H10.7002V13.5948H22.2992V19.7934L30.2998 13.164V7.79383C30.2998 6.46898 29.2248 5.39392 27.8999 5.39392Z" fill="#FFBA00"/>
</g>
<defs>
<clipPath id="clip0_908_4077">
<rect width="35.0001" height="28.8476" fill="white" transform="translate(2.50098 5.39392)"/>
</clipPath>
</defs>
</svg>